`                            __     __   __            __  __ 
                  .-----..--|  |.--|  | |  |--..---.-.|  ||  |
                  |  _  ||  _  ||  _  | |  _  ||  _  ||  ||  |
                  |_____||_____||_____| |_____||___._||__||__|
                                  -links.com   `                                                      

Ghosts of Girlfriends Past is a 2009 American romantic comedy film whose plot is based on Charles Dickens' A Christmas Carol. Mark Waters directed a script by Jon Lucas and Scott Moore. Filming spanned February 19, 2008 to July 2008 in Boston, Massachusetts with stars Matthew McConaughey, Jennifer Garner and Emma Stone.The film was released on May 1, 2009.

Ghosts of Girlfriends Past features a wedding and the day before the wedding, instead of the Christmas Eve and Christmas like the story that the movie is based on. The three ghosts share similar appearances with the original descriptions of the same, and the movie basically shares the traditional plot points from the book.

                                    +-+-+-+-+
                                    |c|a|s|t|
                                    +-+-+-+-+
                                         
                  Actor                              Role

                  Matthew McConaughey .............. Connor Mead 
                  Jennifer Garner .................. Jenny Perotti 
                  Michael Douglas .................. Wayne Mead 
                  Emma Stone ....................... Allison Vandermeersh 
                  Daniel Sunjata ................... Brad 
                  Noureen DeWulf ................... Melanie 
                  Breckin Meyer .................... Paul Mead 
                  Lacey Chabert .................... Sandra Volkom
                  Anne Archer ...................... Vonda Volkom
                  Amanda Walsh ..................... Denice 
                  Camille Guaty .................... Donna 
                  Rachel Boston .................... Deena 

General
Complete name                    : Ghosts Of Girlfriends Past
Format                           : AVI
Format/Info                      : Audio Video Interleave
File size                        : 776 MiB
Duration                         : 1h 36mn
Overall bit rate                 : 1 125 Kbps

Video
Format                           : MPEG-4 Visual
Format profile                   : Streaming Video@L1
Format settings, BVOP            : Yes
Format settings, QPel            : No
Format settings, GMC             : No warppoints
Format settings, Matrix          : Default
Muxing mode                      : Packed bitstream
Codec ID                         : XVID
Codec ID/Hint                    : XviD
Duration                         : 1h 36mn
Bit rate                         : 921 Kbps
Width                            : 1 024 pixels
Height                           : 582 pixels
Display aspect ratio             : 16/9
Frame rate                       : 29.970 fps
Resolution                       : 24 bits
Colorimetry                      : 4:2:0
Scan type                        : Progressive
Bits/(Pixel*Frame)               : 0.052
Stream size                      : 636 MiB (82%)
Writing library                  : XviD 1.1.0 (UTC 2005-11-22)

Audio
Format                           : MPEG Audio
Format version                   : Version 1
Format profile                   : Layer 3
Codec ID                         : 55
Codec ID/Hint                    : MP3
Duration                         : 1h 36mn
Bit rate mode                    : Constant
Bit rate                         : 192 Kbps
Channel(s)                       : 2 channels
Sampling rate                    : 44.1 KHz
Resolution                       : 16 bits
Video delay                      : 26ms
Stream size                      : 132 MiB (17%)
Alignment                        : Split accross interleaves
Interleave, duration             : 33 ms (1.00 video frame)
Title                            : Audio Stream

For more oddball torrents  http://thepiratebay.org/user/oddball-links `                                                                                                            Please seed after downloading `                                                                                            :::===  :::===== :::===== :::====       :::= === :::====  :::====
        :::     :::      :::      :::  ===      :::===== :::  === :::====
         =====  ======   ======   ===  ===      ======== ===  ===   ===  
            === ===      ===      ===  ===      === ==== ===  ===   ===  
        ======  ======== ======== =======       ===  ===  ======    ===  
                                                                         
                  :::=====  :::====  :::===== :::===== :::==== 
                  :::       :::  === :::      :::      :::  ===
                  === ===== =======  ======   ======   ===  ===
                  ===   === === ===  ===      ===      ===  ===
                   =======  ===  === ======== ======== =======